inDegrees=no
num_controls=7
num_derivatives=13
num_iterations=122
num_multipliers=7
num_parameters=0
num_slacks=7
num_states=26
objective=0.497122
objective_accelerations=0.032270
objective_balance=0.003279
objective_effort=0.035014
objective_height=0.421074
objective_ligament=0.005485
solver_duration=1388.385992
status=Solve_Succeeded
success=true
DataType=double
version=3
OpenSimVersion=4.5
endheader
time	/jointset/ground_pelvis/pelvis_tilt/value	/jointset/ground_pelvis/pelvis_tx/value	/jointset/ground_pelvis/pelvis_ty/value	/jointset/hip_r/hip_flexion_r/value	/jointset/hip_r/hip_adduction_r/value	/jointset/hip_r/hip_rotation_r/value	/jointset/back/lumbar_extension/value	/jointset/patellofemoral_r/patellar_flexion_r/value	/jointset/knee_r/knee_flexion_r/value	/jointset/knee_r/knee_adduction_r/value	/jointset/knee_r/knee_rotation_r/value	/jointset/ankle_r/ankle_angle_r/value	/jointset/subtalar_r/subtalar_angle_r/value	/jointset/ground_pelvis/pelvis_tilt/speed	/jointset/ground_pelvis/pelvis_tx/speed	/jointset/ground_pelvis/pelvis_ty/speed	/jointset/hip_r/hip_flexion_r/speed	/jointset/hip_r/hip_adduction_r/speed	/jointset/hip_r/hip_rotation_r/speed	/jointset/back/lumbar_extension/speed	/jointset/patellofemoral_r/patellar_flexion_r/speed	/jointset/knee_r/knee_flexion_r/speed	/jointset/knee_r/knee_adduction_r/speed	/jointset/knee_r/knee_rotation_r/speed	/jointset/ankle_r/ankle_angle_r/speed	/jointset/subtalar_r/subtalar_angle_r/speed	/forceset/tau_hip_flexion_r	/forceset/tau_hip_adduction_r	/forceset/tau_hip_rotation_r	/forceset/tau_knee_flexion_r	/forceset/tau_ankle_angle_r	/forceset/tau_subtalar_angle_r	/forceset/tau_lumbar_extension	lambda_cid13_p0	lambda_cid14_p0	lambda_cid14_p1	lambda_cid14_p2	lambda_cid14_p3	lambda_cid14_p4	lambda_cid14_p5	/jointset/ground_pelvis/pelvis_tilt/accel	/jointset/ground_pelvis/pelvis_tx/accel	/jointset/ground_pelvis/pelvis_ty/accel	/jointset/hip_r/hip_flexion_r/accel	/jointset/hip_r/hip_adduction_r/accel	/jointset/hip_r/hip_rotation_r/accel	/jointset/back/lumbar_extension/accel	/jointset/patellofemoral_r/patellar_flexion_r/accel	/jointset/knee_r/knee_flexion_r/accel	/jointset/knee_r/knee_adduction_r/accel	/jointset/knee_r/knee_rotation_r/accel	/jointset/ankle_r/ankle_angle_r/accel	/jointset/subtalar_r/subtalar_angle_r/accel	gamma_cid13_p0	gamma_cid14_p0	gamma_cid14_p1	gamma_cid14_p2	gamma_cid14_p3	gamma_cid14_p4	gamma_cid14_p5
0.5	-0.09638569812854265	0.05181934021136499	0.8635713676411482	0.6916636081013504	-0.230210863721858	-0.1329246195306014	-0.3181489971833208	0.6883473979300916	0.6883473979301971	0.04160073995145916	0.1743904827030051	0.2639924846281498	0.05662730034213113	-0.2588822969274448	-0.08897204135247369	-0.3254482247421207	1.398368673744272	-0.007531630819855739	0.2556366501877869	-0.6001355625140476	1.660766842227375	1.660766842227366	-0.2789168636066914	-0.0009032518804403253	0.6107313140301958	0.1644041086206421	-0.07460426744061464	-0.01864649229240218	0.008307433880748401	-0.3406389854861774	0.06311531394581402	-0.01030687011944727	0.1350538601248255	-31.99089367694818	-21.98736551443929	-4.413550265804727	-3.305466394020382	3.532468884438192	-671.2523981804685	59.95420669959073	0.0595946528232577	0.2797097253908424	-0.3377741766550202	-0.8743109812574971	-0.05146876100336745	-0.5586344754489707	1.318951515795004	-1.163162480785446	-1.163162480785447	0.3883771043843466	-0.0004853067540999028	-0.4793286979034844	-0.06376493480583373	-1.092937506856591e-07	-1.565494743116927e-07	5.305559223749331e-07	-1.234128369223638e-06	3.972878062509189e-08	-2.104668424369641e-07	8.424745563117608e-07
0.51	-0.09897109799729446	0.05094372717527111	0.8603007267691229	0.7056013449547546	-0.2302895028689969	-0.1303951573436765	-0.3240836651366384	0.7048943959754634	0.7048943959755705	0.03883331763591946	0.1743814279486664	0.2700747099531726	0.0582667805931754	-0.2581610741834725	-0.08614020043034663	-0.3286056328514541	1.388982866373255	-0.008199299126293386	0.2502595157428464	-0.5867167319365586	1.648396996402121	1.648396996402094	-0.2745355418039933	-0.0009090175174916509	0.605629677894214	0.1634592384459222	-0.07986846790606147	-0.01684374767544385	0.00896301677190988	-0.3434350982889453	0.05884594165472021	-0.009715214149617159	0.1399026531385355	-31.04475036209832	-23.49947995500777	-4.539010442243975	-3.151072695400428	4.122514003441769	-674.4471714410082	59.73567524861506	0.08386379091238261	0.2864850867575955	-0.2936192737003986	-1.00010726118595	-0.07504422351519496	-0.5268760910502713	1.365543260256558	-1.309240084514158	-1.309240084516877	0.4678248404123327	-0.001035449386628387	-0.5382012600104751	-0.114820523539691	-9.286104588214572e-08	-1.169305612580037e-07	5.762307441480185e-07	-9.33903145460586e-07	1.044549826796625e-08	-1.667200683920311e-07	7.380168928066575e-07
0.52	-0.1015481900974562	0.0500967453106257	0.8570007327868786	0.719439345405219	-0.2303749443708132	-0.1279193911336064	-0.3298817058978743	0.7213106266723645	0.7213106266724597	0.03611067156284596	0.1743722328865161	0.2761033948791229	0.05989581764952557	-0.2572207432103949	-0.08324580706277952	-0.3313188467859144	1.378421393155753	-0.008892101754778583	0.2448974548165564	-0.5728101240978607	1.634613372532115	1.63461337253207	-0.2699616151133042	-0.0009313134427816794	0.6000232342156369	0.1623154696818178	-0.08513266837151244	-0.0150410030584872	0.00961859966308052	-0.3462312110917145	0.05457656936362489	-0.009123558179789141	0.1447514461522423	-30.09067844141939	-25.01599909985881	-4.662618638292892	-2.99997133741248	4.698813953259245	-677.7165267092349	59.58056138008082	0.1034162986440835	0.2922202144790518	-0.2489353416804193	-1.109444150554604	-0.05649562541290606	-0.5556197717189094	1.416506968036652	-1.445918089735818	-1.445918089735818	0.4268980819825627	-0.003791364401784267	-0.5802902064222771	-0.1035446526827001	-6.716603849785559e-08	-3.716038298642779e-08	7.480635683003328e-07	-3.4670845088763e-07	-5.931992985388709e-08	-7.253516012292513e-08	5.903947292077668e-07
0.53	-0.104114915247369	0.04927897282913499	0.8536758483428145	0.7331661768639366	-0.2304670088144275	-0.1254986799363519	-0.3355383184399948	0.7375821321354681	0.7375821321355117	0.03343296793993525	0.1743634893009662	0.2820736698339643	0.06151305670800776	-0.256089294051726	-0.0803016856623016	-0.3335799968790994	1.366753405760244	-0.00952981113056278	0.2392878142925735	-0.5584503005741901	1.619456524104974	1.619456524104973	-0.2655143943710328	-0.0008420148235775493	0.5939472896208996	0.1610892648954247	-0.09014476897347745	-0.01341620048096934	0.01029632247017721	-0.3493453919196133	0.05068808146854875	-0.008651819279819589	0.14938893760856	-29.13088443516931	-26.4213649210853	-4.826859973565176	-2.833236415717051	5.238750018315936	-681.0352888593255	59.41118820526356	0.1232575317071575	0.2965394464634126	-0.2030026838057692	-1.224199765573881	-0.06870040263290755	-0.5572417477124496	1.45503260694447	-1.585236882808908	-1.58523688280229	0.4634572696532396	0.01160608105997639	-0.6339385714556831	-0.1384927227155938	-4.146789697868563e-08	4.581048522061791e-08	9.556220773667716e-07	2.625103642052152e-07	-1.350548051311387e-07	2.141948607634029e-08	4.741729919524534e-07
0.54	-0.1066692762442434	0.04849084783037569	0.8503306928296848	0.7467705837023971	-0.2305657087135915	-0.123132786255336	-0.3410494702343956	0.7536951353815754	0.753695135381566	0.03080170116431653	0.1743549018228173	0.2879806469457676	0.06311676685240644	-0.2547479126039198	-0.07731631051649583	-0.3353730605990232	1.353936469103748	-0.01021919286521059	0.2339339515696069	-0.5437179745540496	1.602912929133605	1.602912929133648	-0.2606742456566067	-0.0009000919652364432	0.5873636656079153	0.159609686865112	-0.09515686957545733	-0.01179139790347082	0.01097404527747589	-0.3524595727475192	0.04679959357346222	-0.008180080379889522	0.1540264290648687	-28.16610771008824	-27.83289369941193	-4.991411888293443	-2.667329323182452	5.777692475522837	-684.4497014693106	59.26799402665321	0.1454027564713098	0.3004709635448147	-0.155318067028171	-1.339234002751875	-0.06683009718564793	-0.5044642115156807	1.491007467330484	-1.723267398581473	-1.723267398581473	0.5054836764135595	-0.03326651657433309	-0.681826090071427	-0.1542193014665935	-1.57662879060316e-08	1.323225422924388e-07	1.202706876125434e-06	8.960962913626191e-07	-2.173941751335117e-07	1.151193742408884e-07	3.92692151928332e-07
0.55	-0.1092093118996701	0.04773275911614764	0.8469699483157536	0.7602414331257721	-0.2306710308041377	-0.1208215875456309	-0.3464113731618093	0.7696360241817568	0.7696360241817319	0.02821822115765104	0.1743462801527778	0.2938195305824078	0.06470524919926297	-0.2532256336841915	-0.07429548057755178	-0.3366958359243027	1.340049358147176	-0.01085069663400682	0.2283299530713434	-0.5286070290246836	1.585047283859024	1.585047283858986	-0.2559789309398638	-0.0008372887009685826	0.5803384523093312	0.1580504781457282	-0.1000196809580998	-0.01023083400908817	0.01157469850309487	-0.355669565370698	0.0431384442800478	-0.007715376703308641	0.158536603228487	-27.19740054585932	-29.17033878231741	-5.146001115408036	-2.503064777573743	6.260528544714018	-687.8393881574531	59.15293994641741	0.1606912379337974	0.3037293110219508	-0.1087230801413343	-1.441038940846029	-0.06182149936462179	-0.5846825688880146	1.529475380955628	-1.850844799072915	-1.850844799085095	0.458217533699283	0.02435153798123502	-0.7240982062965396	-0.1618609043450414	5.67161873801171e-10	1.84264388226033e-07	1.345218491770089e-06	1.271872419422741e-06	-2.665330389763501e-07	1.709822050430924e-07	3.566097691696533e-07
0.5600000000000001	-0.1117331146102524	0.04700504676169992	0.8435983828855967	0.7735678935798366	-0.2307827701288976	-0.1185656918008927	-0.3516204991768855	0.7853917301877594	0.7853917301877102	0.02568302673103574	0.1743379460733937	0.2995859162347538	0.0662771216094916	-0.2515013236360722	-0.07124103856042892	-0.3375372438441289	1.325058675241158	-0.01150263970831947	0.2228733585768244	-0.5131625920866946	1.565876370297384	1.565876370297264	-0.2510171296473351	-0.0008425738345457812	0.5728640687489638	0.1562876995395135	-0.1048824923407529	-0.008670270114719943	0.01217535172879414	-0.3588795579938798	0.03947729498662672	-0.00725067302675524	0.1630467773920986	-26.2260968968854	-30.5158654472748	-5.303432613974355	-2.336715255308018	6.755804499724745	-691.3506266704437	59.02485557883469	0.1858089821492945	0.3071933791807644	-0.05904458593751385	-1.559948392641329	-0.07091795828895683	-0.4749834107668149	1.557705749054996	-1.98432105599327	-1.984321055993275	0.558780991570746	-0.04688419614329312	-0.7716601424278754	-0.1949332788327576	5.658820502248766e-09	1.947219807937566e-07	1.36224228767794e-06	1.338276788566134e-06	-2.758312954277482e-07	1.814405670104851e-07	3.75005535129504e-07
0.5700000000000001	-0.1142387275052241	0.04630800445296212	0.8402208110978516	0.7867391322932292	-0.2309010095746598	-0.116364195883507	-0.3566736005635225	0.8009493621943558	0.8009493621943572	0.02319810493192073	0.1743294837960407	0.3052754028196787	0.06783054145674028	-0.2495901857279441	-0.06816537085146367	-0.3378961079155317	1.309017486067697	-0.01214267935565948	0.2174188650544601	-0.4974147329116203	1.5454451209349	1.545445120934786	-0.245960212264649	-0.000846257007789323	0.5649649460472334	0.1543719398561782	-0.1095629768595333	-0.007095836616445859	0.0126588257529638	-0.3620796472128029	0.03592514629367287	-0.006768346228758926	0.1673790863413478	-25.25376862994522	-31.82016413007009	-5.445354398902558	-2.173567920297655	7.240730587644713	-694.7536113226643	58.91721813672589	0.1984415562166741	0.3080050994307088	-0.01211897803570134	-1.6519196125334	-0.05983352444386134	-0.5816532859433804	1.589768850719712	-2.103265097309274	-2.10326509730842	0.4804396887355116	0.02371887339195012	-0.8093218981688222	-0.1931692854857318	8.429308619409444e-09	1.969975831952535e-07	1.354883086191875e-06	1.34428015666552e-06	-2.771525948197608e-07	1.829133885712136e-07	3.9990801384804e-07
